<svg width="204" height="57" viewBox="0 0 204 57" fill="none" xmlns="http://www.w3.org/2000/svg">
  <path d="M33.68 29.16C34.0267 29.16 34.2933 29.3333 34.48 29.68C34.6933 30 34.8 30.4133 34.8 30.92C34.8 31.5333 34.7067 32.0133 34.52 32.36C34.3333 32.7067 34.04 33.0133 33.64 33.28C32.0667 34.32 29.56 36.0267 26.12 38.4C25.08 43.92 23.7333 48.2667 22.08 51.44C20.4267 54.6133 18.3333 56.2 15.8 56.2C14.44 56.2 13.3333 55.7733 12.48 54.92C11.6267 54.0933 11.2 53 11.2 51.64C11.2 50.3867 11.48 49.12 12.04 47.84C12.6 46.56 13.64 45.08 15.16 43.4C16.7067 41.72 18.88 39.8 21.68 37.64L21.8 36.88C19.6933 37.76 17.6267 38.2 15.6 38.2C12.6133 38.2 9.98666 37.6267 7.72 36.48C5.45333 35.3067 3.69333 33.6533 2.44 31.52C1.18666 29.3867 0.559998 26.9067 0.559998 24.08C0.559998 20.1333 1.30666 16.6533 2.8 13.64C4.29333 10.6 6.34666 8.25333 8.96 6.6C11.6 4.91999 14.5467 4.07999 17.8 4.07999C20.92 4.07999 23.2533 4.81333 24.8 6.27999C26.3733 7.72 27.16 9.63999 27.16 12.04C27.16 13.6133 26.8667 14.88 26.28 15.84C25.72 16.7733 24.9067 17.24 23.84 17.24C23.12 17.24 22.5333 17.0667 22.08 16.72C21.6533 16.3733 21.44 15.8933 21.44 15.28C21.44 15.0133 21.4933 14.56 21.6 13.92C21.76 13.1733 21.84 12.5867 21.84 12.16C21.84 11.04 21.4933 10.1733 20.8 9.56C20.1333 8.94666 19 8.64 17.4 8.64C15.4533 8.64 13.64 9.2 11.96 10.32C10.3067 11.44 8.97333 13.12 7.96 15.36C6.94666 17.5733 6.44 20.24 6.44 23.36C6.44 26.56 7.30666 29.04 9.04 30.8C10.8 32.5333 13.3333 33.4 16.64 33.4C18.48 33.4 20.4 32.9867 22.4 32.16L22.96 27.28H18.88C18.1333 27.28 17.56 27.1067 17.16 26.76C16.76 26.3867 16.56 25.7867 16.56 24.96C16.56 24.2133 16.76 23.6267 17.16 23.2C17.56 22.7733 18.0933 22.56 18.76 22.56H26.24C26.8267 22.56 27.3067 22.76 27.68 23.16C28.08 23.5333 28.24 24.08 28.16 24.8C28.08 25.6533 27.8133 27.5867 27.36 30.6L26.92 33.64C29.0533 32.04 31 30.6533 32.76 29.48C33.1067 29.2667 33.4133 29.16 33.68 29.16ZM16.24 52.32C16.9333 52.32 17.6933 51.5333 18.52 49.96C19.3467 48.3867 20.12 45.8533 20.84 42.36C18.8133 44.0933 17.3467 45.6533 16.44 47.04C15.56 48.4533 15.12 49.6933 15.12 50.76C15.12 51.8 15.4933 52.32 16.24 52.32Z" fill="black" />
  <path d="M36.8712 38.2C35.2179 38.2 33.8979 37.6 32.9112 36.4C31.9246 35.2 31.4312 33.6267 31.4312 31.68C31.4312 29.5467 31.9246 27.5333 32.9112 25.64C33.8979 23.72 35.2046 22.1867 36.8312 21.04C38.4846 19.8667 40.2312 19.28 42.0712 19.28C42.6579 19.28 43.0446 19.4 43.2312 19.64C43.4446 19.8533 43.6179 20.2533 43.7512 20.84C44.3112 20.7333 44.8979 20.68 45.5112 20.68C46.8179 20.68 47.4712 21.1467 47.4712 22.08C47.4712 22.64 47.2712 23.9733 46.8713 26.08C46.2579 29.1467 45.9512 31.28 45.9512 32.48C45.9512 32.88 46.0446 33.2 46.2312 33.44C46.4446 33.68 46.7112 33.8 47.0312 33.8C47.5379 33.8 48.1512 33.48 48.8712 32.84C49.5912 32.1733 50.5646 31.1067 51.7912 29.64C52.1112 29.2667 52.4713 29.08 52.8713 29.08C53.2179 29.08 53.4846 29.24 53.6712 29.56C53.8846 29.88 53.9912 30.32 53.9912 30.88C53.9912 31.9467 53.7379 32.7733 53.2313 33.36C52.1379 34.72 50.9779 35.8667 49.7512 36.8C48.5246 37.7333 47.3379 38.2 46.1912 38.2C45.3113 38.2 44.4979 37.9067 43.7512 37.32C43.0312 36.7067 42.4846 35.88 42.1112 34.84C40.7246 37.08 38.9779 38.2 36.8712 38.2ZM38.3112 34.16C38.8979 34.16 39.4579 33.8133 39.9912 33.12C40.5246 32.4267 40.9112 31.5067 41.1512 30.36L42.6312 23C41.5112 23.0267 40.4712 23.4533 39.5112 24.28C38.5779 25.08 37.8312 26.1467 37.2712 27.48C36.7112 28.8133 36.4312 30.2267 36.4312 31.72C36.4312 32.5467 36.5912 33.16 36.9112 33.56C37.2579 33.96 37.7246 34.16 38.3112 34.16Z" fill="black" />
  <path d="M53.5803 38.2C52.567 38.2 51.847 37.6667 51.4203 36.6C51.0203 35.5333 50.8203 33.8267 50.8203 31.48C50.8203 28.0133 51.3136 24.72 52.3003 21.6C52.5403 20.8267 52.927 20.2667 53.4603 19.92C54.0203 19.5467 54.7936 19.36 55.7803 19.36C56.3136 19.36 56.687 19.4267 56.9003 19.56C57.1136 19.6933 57.2203 19.9467 57.2203 20.32C57.2203 20.7467 57.0203 21.7067 56.6203 23.2C56.3536 24.2667 56.1403 25.2 55.9803 26C55.8203 26.7733 55.687 27.7467 55.5803 28.92C56.3003 26.84 57.1536 25.08 58.1403 23.64C59.1536 22.2 60.1803 21.1333 61.2203 20.44C62.287 19.72 63.287 19.36 64.2203 19.36C65.1536 19.36 65.807 19.5733 66.1803 20C66.5803 20.4267 66.7803 21.08 66.7803 21.96C66.7803 22.8133 66.527 24.36 66.0203 26.6C65.807 27.56 65.6603 28.28 65.5803 28.76C66.9136 25.48 68.3936 23.0933 70.0203 21.6C71.647 20.1067 73.167 19.36 74.5803 19.36C76.3136 19.36 77.1803 20.2267 77.1803 21.96C77.1803 23 76.887 24.88 76.3003 27.6C75.7936 29.92 75.5403 31.4533 75.5403 32.2C75.5403 33.2667 75.927 33.8 76.7003 33.8C77.2336 33.8 77.8603 33.48 78.5803 32.84C79.327 32.1733 80.3136 31.1067 81.5403 29.64C81.8603 29.2667 82.2203 29.08 82.6203 29.08C82.967 29.08 83.2336 29.24 83.4203 29.56C83.6336 29.88 83.7403 30.32 83.7403 30.88C83.7403 31.9467 83.487 32.7733 82.9803 33.36C81.8336 34.7733 80.5936 35.9333 79.2603 36.84C77.9536 37.7467 76.4603 38.2 74.7803 38.2C73.4203 38.2 72.3936 37.8133 71.7003 37.04C71.007 36.24 70.6603 35.0933 70.6603 33.6C70.6603 32.8533 70.847 31.52 71.2203 29.6C71.567 27.92 71.7403 26.76 71.7403 26.12C71.7403 25.6933 71.5936 25.48 71.3003 25.48C70.9536 25.48 70.4603 25.9333 69.8203 26.84C69.1803 27.72 68.5403 28.8933 67.9003 30.36C67.2603 31.8267 66.7403 33.3733 66.3403 35C66.047 36.28 65.7003 37.1333 65.3003 37.56C64.927 37.9867 64.3136 38.2 63.4603 38.2C62.5803 38.2 61.9136 37.7867 61.4603 36.96C61.0336 36.1067 60.8203 35.08 60.8203 33.88C60.8203 32.8667 60.9536 31.4 61.2203 29.48C61.4336 27.7733 61.5403 26.6533 61.5403 26.12C61.5403 25.6933 61.3936 25.48 61.1003 25.48C60.7003 25.48 60.1936 25.96 59.5803 26.92C58.967 27.88 58.367 29.1067 57.7803 30.6C57.2203 32.0933 56.767 33.56 56.4203 35C56.127 36.2533 55.7803 37.1067 55.3803 37.56C55.007 37.9867 54.407 38.2 53.5803 38.2Z" fill="black" />
  <path d="M94.8259 30.28C95.1726 30.28 95.4393 30.44 95.6259 30.76C95.8393 31.08 95.9459 31.52 95.9459 32.08C95.9459 33.04 95.7193 33.8667 95.2659 34.56C94.5193 35.7067 93.5326 36.6 92.3059 37.24C91.1059 37.88 89.6659 38.2 87.9859 38.2C85.4259 38.2 83.4393 37.44 82.0259 35.92C80.6126 34.3733 79.9059 32.2933 79.9059 29.68C79.9059 27.84 80.2926 26.1333 81.0659 24.56C81.8393 22.96 82.9059 21.6933 84.2659 20.76C85.6526 19.8267 87.2126 19.36 88.9459 19.36C90.4926 19.36 91.7326 19.8267 92.6659 20.76C93.5993 21.6667 94.0659 22.9067 94.0659 24.48C94.0659 26.32 93.3993 27.9067 92.0659 29.24C90.7593 30.5467 88.5193 31.5867 85.3459 32.36C85.9859 33.5867 87.0659 34.2 88.5859 34.2C89.6793 34.2 90.5726 33.9467 91.2659 33.44C91.9859 32.9333 92.8126 32.08 93.7459 30.88C94.0659 30.48 94.4259 30.28 94.8259 30.28ZM88.2659 23.28C87.2793 23.28 86.4393 23.8533 85.7459 25C85.0793 26.1467 84.7459 27.5333 84.7459 29.16V29.24C86.3193 28.8667 87.5593 28.3067 88.4659 27.56C89.3726 26.8133 89.8259 25.9467 89.8259 24.96C89.8259 24.4533 89.6793 24.0533 89.3859 23.76C89.1193 23.44 88.7459 23.28 88.2659 23.28Z" fill="black" />
  <path d="M127.937 25.72C128.284 25.72 128.551 25.8933 128.737 26.24C128.924 26.5867 129.017 27.0267 129.017 27.56C129.017 28.84 128.631 29.6 127.857 29.84C126.257 30.4 124.497 30.72 122.577 30.8C122.071 33.04 121.071 34.84 119.577 36.2C118.084 37.5333 116.391 38.2 114.497 38.2C112.897 38.2 111.524 37.8133 110.377 37.04C109.257 36.2667 108.404 35.24 107.817 33.96C107.231 32.68 106.937 31.2933 106.937 29.8C106.937 27.7733 107.324 25.9733 108.097 24.4C108.871 22.8 109.937 21.56 111.297 20.68C112.657 19.7733 114.164 19.32 115.817 19.32C117.844 19.32 119.471 20.0267 120.697 21.44C121.951 22.8267 122.684 24.5467 122.897 26.6C124.151 26.52 125.644 26.2533 127.377 25.8C127.591 25.7467 127.777 25.72 127.937 25.72ZM114.817 33.96C115.671 33.96 116.404 33.6133 117.017 32.92C117.657 32.2267 118.084 31.2267 118.297 29.92C117.471 29.36 116.831 28.6267 116.377 27.72C115.951 26.8133 115.737 25.8533 115.737 24.84C115.737 24.4133 115.777 23.9867 115.857 23.56H115.657C114.591 23.56 113.697 24.08 112.977 25.12C112.284 26.1333 111.937 27.5733 111.937 29.44C111.937 30.9067 112.217 32.0267 112.777 32.8C113.364 33.5733 114.044 33.96 114.817 33.96Z" fill="black" />
  <path d="M141.544 26.8C142.291 26.8 142.664 27.36 142.664 28.48C142.664 30.5867 141.011 31.64 137.704 31.64C137.064 31.64 136.144 31.52 134.944 31.28C135.291 32.9333 135.571 34.7733 135.784 36.8C136.024 38.8 136.144 40.4533 136.144 41.76C136.144 44.64 135.677 46.84 134.744 48.36C133.811 49.88 132.584 50.64 131.064 50.64C129.144 50.64 127.771 49.28 126.944 46.56C126.144 43.84 125.744 39.7333 125.744 34.24C125.744 29.12 126.291 23.9333 127.384 18.68C128.504 13.4 130.024 9.03999 131.944 5.59999C133.891 2.13333 136.024 0.399994 138.344 0.399994C139.597 0.399994 140.571 0.959994 141.264 2.07999C141.984 3.19999 142.344 4.70666 142.344 6.6C142.344 12.8667 138.597 19.6933 131.104 27.08C130.837 29.6933 130.704 31.9867 130.704 33.96C130.704 36.7067 130.797 39.52 130.984 42.4C131.171 45.3067 131.477 46.76 131.904 46.76C132.704 46.76 133.104 45.3733 133.104 42.6C133.104 40.52 132.957 38.5067 132.664 36.56C132.397 34.6133 132.024 32.56 131.544 30.4C131.517 30.0533 131.624 29.6133 131.864 29.08C132.131 28.5467 132.451 28.08 132.824 27.68C133.197 27.28 133.531 27.08 133.824 27.08C134.357 27.08 134.997 27.1067 135.744 27.16C135.984 27.1867 136.264 27.2 136.584 27.2C137.651 27.2 138.837 27.1067 140.144 26.92C140.357 26.8933 140.584 26.8667 140.824 26.84C141.064 26.8133 141.304 26.8 141.544 26.8ZM137.504 4.36C137.024 4.36 136.424 5.17333 135.704 6.79999C135.011 8.42666 134.317 10.5867 133.624 13.28C132.931 15.9467 132.331 18.7733 131.824 21.76C133.957 19.3333 135.597 16.8133 136.744 14.2C137.891 11.56 138.477 9.09333 138.504 6.79999C138.504 5.17333 138.171 4.36 137.504 4.36Z" fill="black" />
  <path d="M166.174 29.08C166.52 29.08 166.787 29.24 166.974 29.56C167.187 29.88 167.294 30.32 167.294 30.88C167.294 31.9467 167.04 32.7733 166.534 33.36C165.387 34.7733 164.134 35.9333 162.774 36.84C161.44 37.7467 159.92 38.2 158.214 38.2C155.867 38.2 154.12 37.1333 152.974 35C151.854 32.8667 151.294 30.1067 151.294 26.72C151.294 23.4667 151.707 19.76 152.534 15.6C153.387 11.44 154.627 7.86666 156.254 4.87999C157.907 1.89333 159.867 0.399994 162.134 0.399994C163.414 0.399994 164.414 0.999994 165.134 2.19999C165.88 3.37333 166.254 5.06666 166.254 7.28C166.254 10.4533 165.374 14.1333 163.614 18.32C161.854 22.5067 159.467 26.6533 156.454 30.76C156.64 31.8533 156.947 32.64 157.374 33.12C157.8 33.5733 158.36 33.8 159.054 33.8C160.147 33.8 161.107 33.4933 161.934 32.88C162.76 32.24 163.814 31.16 165.094 29.64C165.414 29.2667 165.774 29.08 166.174 29.08ZM161.254 4.36C160.64 4.36 159.947 5.46666 159.174 7.68C158.4 9.89333 157.72 12.64 157.134 15.92C156.547 19.2 156.227 22.3467 156.174 25.36C158.067 22.24 159.574 19.12 160.694 16C161.814 12.8533 162.374 9.98666 162.374 7.39999C162.374 5.37333 162 4.36 161.254 4.36Z" fill="black" />
  <path d="M169.301 16.72C168.181 16.72 167.341 16.4667 166.781 15.96C166.221 15.4267 165.941 14.6933 165.941 13.76C165.941 12.8267 166.301 12.0533 167.021 11.44C167.767 10.8 168.687 10.48 169.781 10.48C170.767 10.48 171.567 10.72 172.181 11.2C172.794 11.68 173.101 12.36 173.101 13.24C173.101 14.3067 172.754 15.16 172.061 15.8C171.367 16.4133 170.447 16.72 169.301 16.72ZM168.981 38.2C167.247 38.2 165.981 37.5867 165.181 36.36C164.407 35.1333 164.021 33.5067 164.021 31.48C164.021 30.28 164.167 28.7467 164.461 26.88C164.781 24.9867 165.181 23.2267 165.661 21.6C165.901 20.7467 166.221 20.16 166.621 19.84C167.021 19.52 167.661 19.36 168.541 19.36C169.901 19.36 170.581 19.8133 170.581 20.72C170.581 21.3867 170.327 22.9333 169.821 25.36C169.181 28.2933 168.861 30.28 168.861 31.32C168.861 32.12 168.967 32.7333 169.181 33.16C169.394 33.5867 169.754 33.8 170.261 33.8C170.741 33.8 171.341 33.4667 172.061 32.8C172.781 32.1333 173.741 31.08 174.941 29.64C175.261 29.2667 175.621 29.08 176.021 29.08C176.367 29.08 176.634 29.24 176.821 29.56C177.034 29.88 177.141 30.32 177.141 30.88C177.141 31.9467 176.887 32.7733 176.381 33.36C173.741 36.5867 171.274 38.2 168.981 38.2Z" fill="black" />
  <path d="M189.474 26.8C190.22 26.8 190.594 27.36 190.594 28.48C190.594 30.5867 188.94 31.64 185.634 31.64C184.994 31.64 184.074 31.52 182.874 31.28C183.22 32.9333 183.5 34.7733 183.714 36.8C183.954 38.8 184.074 40.4533 184.074 41.76C184.074 44.64 183.607 46.84 182.674 48.36C181.74 49.88 180.514 50.64 178.994 50.64C177.074 50.64 175.7 49.28 174.874 46.56C174.074 43.84 173.674 39.7333 173.674 34.24C173.674 29.12 174.22 23.9333 175.314 18.68C176.434 13.4 177.954 9.03999 179.874 5.59999C181.82 2.13333 183.954 0.399994 186.274 0.399994C187.527 0.399994 188.5 0.959994 189.194 2.07999C189.914 3.19999 190.274 4.70666 190.274 6.6C190.274 12.8667 186.527 19.6933 179.034 27.08C178.767 29.6933 178.634 31.9867 178.634 33.96C178.634 36.7067 178.727 39.52 178.914 42.4C179.1 45.3067 179.407 46.76 179.834 46.76C180.634 46.76 181.034 45.3733 181.034 42.6C181.034 40.52 180.887 38.5067 180.594 36.56C180.327 34.6133 179.954 32.56 179.474 30.4C179.447 30.0533 179.554 29.6133 179.794 29.08C180.06 28.5467 180.38 28.08 180.754 27.68C181.127 27.28 181.46 27.08 181.754 27.08C182.287 27.08 182.927 27.1067 183.674 27.16C183.914 27.1867 184.194 27.2 184.514 27.2C185.58 27.2 186.767 27.1067 188.074 26.92C188.287 26.8933 188.514 26.8667 188.754 26.84C188.994 26.8133 189.234 26.8 189.474 26.8ZM185.434 4.36C184.954 4.36 184.354 5.17333 183.634 6.79999C182.94 8.42666 182.247 10.5867 181.554 13.28C180.86 15.9467 180.26 18.7733 179.754 21.76C181.887 19.3333 183.527 16.8133 184.674 14.2C185.82 11.56 186.407 9.09333 186.434 6.79999C186.434 5.17333 186.1 4.36 185.434 4.36Z" fill="black" />
  <path d="M201.896 30.28C202.243 30.28 202.51 30.44 202.696 30.76C202.91 31.08 203.016 31.52 203.016 32.08C203.016 33.04 202.79 33.8667 202.336 34.56C201.59 35.7067 200.603 36.6 199.376 37.24C198.176 37.88 196.736 38.2 195.056 38.2C192.496 38.2 190.51 37.44 189.096 35.92C187.683 34.3733 186.976 32.2933 186.976 29.68C186.976 27.84 187.363 26.1333 188.136 24.56C188.91 22.96 189.976 21.6933 191.336 20.76C192.723 19.8267 194.283 19.36 196.016 19.36C197.563 19.36 198.803 19.8267 199.736 20.76C200.67 21.6667 201.136 22.9067 201.136 24.48C201.136 26.32 200.47 27.9067 199.136 29.24C197.83 30.5467 195.59 31.5867 192.416 32.36C193.056 33.5867 194.136 34.2 195.656 34.2C196.75 34.2 197.643 33.9467 198.336 33.44C199.056 32.9333 199.883 32.08 200.816 30.88C201.136 30.48 201.496 30.28 201.896 30.28ZM195.336 23.28C194.35 23.28 193.51 23.8533 192.816 25C192.15 26.1467 191.816 27.5333 191.816 29.16V29.24C193.39 28.8667 194.63 28.3067 195.536 27.56C196.443 26.8133 196.896 25.9467 196.896 24.96C196.896 24.4533 196.75 24.0533 196.456 23.76C196.19 23.44 195.816 23.28 195.336 23.28Z" fill="black" />
</svg>
